<mxfile host="app.diagrams.net" agent="Mozilla/5.0 (Macintosh; Intel Mac OS X 10_15_7) AppleWebKit/605.1.15 (KHTML, like Gecko) Version/26.0.1 Safari/605.1.15" version="28.2.7">
  <diagram name="Page-1" id="UmJcWgQW5-kBxwZM-P0t">
    <mxGraphModel dx="867" dy="840" grid="1" gridSize="10" guides="1" tooltips="1" connect="1" arrows="1" fold="1" page="1" pageScale="1" pageWidth="850" pageHeight="1100" math="0" shadow="0">
      <root>
        <mxCell id="0" />
        <mxCell id="1" parent="0" />
        <mxCell id="2CvZfWqr4aYp74dCvFw_-1" value="&lt;font style=&quot;font-size: 27px;&quot;&gt;x&lt;/font&gt;" style="ellipse;whiteSpace=wrap;html=1;aspect=fixed;" vertex="1" parent="1">
          <mxGeometry x="250" y="120" width="80" height="80" as="geometry" />
        </mxCell>
        <mxCell id="2CvZfWqr4aYp74dCvFw_-2" value="&lt;font style=&quot;font-size: 27px;&quot;&gt;u&lt;/font&gt;" style="ellipse;whiteSpace=wrap;html=1;aspect=fixed;" vertex="1" parent="1">
          <mxGeometry x="250" y="270" width="80" height="80" as="geometry" />
        </mxCell>
        <mxCell id="2CvZfWqr4aYp74dCvFw_-3" value="&lt;font style=&quot;font-size: 27px;&quot;&gt;y&lt;/font&gt;" style="ellipse;whiteSpace=wrap;html=1;aspect=fixed;" vertex="1" parent="1">
          <mxGeometry x="440" y="120" width="80" height="80" as="geometry" />
        </mxCell>
        <mxCell id="2CvZfWqr4aYp74dCvFw_-5" value="&lt;font style=&quot;font-size: 27px;&quot;&gt;z&lt;/font&gt;" style="ellipse;whiteSpace=wrap;html=1;aspect=fixed;" vertex="1" parent="1">
          <mxGeometry x="70" y="120" width="80" height="80" as="geometry" />
        </mxCell>
        <mxCell id="2CvZfWqr4aYp74dCvFw_-6" value="" style="endArrow=classic;html=1;rounded=0;fontSize=13;convertToSvg=1;strokeWidth=2;exitX=1;exitY=0.5;exitDx=0;exitDy=0;entryX=0;entryY=0.5;entryDx=0;entryDy=0;" edge="1" parent="1" source="2CvZfWqr4aYp74dCvFw_-5" target="2CvZfWqr4aYp74dCvFw_-1">
          <mxGeometry width="50" height="50" relative="1" as="geometry">
            <mxPoint x="150" y="170" as="sourcePoint" />
            <mxPoint x="200" y="120" as="targetPoint" />
          </mxGeometry>
        </mxCell>
        <mxCell id="2CvZfWqr4aYp74dCvFw_-7" value="" style="endArrow=classic;html=1;rounded=0;fontSize=13;convertToSvg=1;strokeWidth=2;exitX=1;exitY=0.5;exitDx=0;exitDy=0;entryX=0;entryY=0.5;entryDx=0;entryDy=0;" edge="1" parent="1" target="2CvZfWqr4aYp74dCvFw_-3">
          <mxGeometry width="50" height="50" relative="1" as="geometry">
            <mxPoint x="330" y="159.5" as="sourcePoint" />
            <mxPoint x="430" y="159.5" as="targetPoint" />
          </mxGeometry>
        </mxCell>
        <mxCell id="2CvZfWqr4aYp74dCvFw_-8" value="" style="endArrow=classic;html=1;rounded=0;fontSize=13;convertToSvg=1;strokeWidth=2;exitX=1;exitY=0.5;exitDx=0;exitDy=0;entryX=0.5;entryY=1;entryDx=0;entryDy=0;" edge="1" parent="1" target="2CvZfWqr4aYp74dCvFw_-1">
          <mxGeometry width="50" height="50" relative="1" as="geometry">
            <mxPoint x="290" y="270" as="sourcePoint" />
            <mxPoint x="400" y="270.5" as="targetPoint" />
          </mxGeometry>
        </mxCell>
        <mxCell id="2CvZfWqr4aYp74dCvFw_-9" value="&lt;span style=&quot;font-size: 27px;&quot;&gt;w&lt;/span&gt;" style="ellipse;whiteSpace=wrap;html=1;aspect=fixed;" vertex="1" parent="1">
          <mxGeometry x="70" y="270" width="80" height="80" as="geometry" />
        </mxCell>
        <mxCell id="2CvZfWqr4aYp74dCvFw_-10" value="" style="endArrow=classic;html=1;rounded=0;fontSize=13;convertToSvg=1;strokeWidth=2;exitX=1;exitY=0.5;exitDx=0;exitDy=0;entryX=0;entryY=0.5;entryDx=0;entryDy=0;" edge="1" parent="1">
          <mxGeometry width="50" height="50" relative="1" as="geometry">
            <mxPoint x="150" y="309.5" as="sourcePoint" />
            <mxPoint x="250" y="309.5" as="targetPoint" />
          </mxGeometry>
        </mxCell>
      </root>
    </mxGraphModel>
  </diagram>
</mxfile>
